<svg xmlns="http://www.w3.org/2000/svg" xmlns:xlink="http://www.w3.org/1999/xlink" version="1.1" x="0px" y="0px" viewBox="0 0 100 100" enable-background="new 0 0 100 100" xml:space="preserve"><g><polygon points="65.209,65.309 65.209,74.039 73.939,74.039 73.939,65.309 65.21,65.309  "></polygon><polygon points="54.479,63.309 63.209,63.309 63.21,63.309 63.21,54.579 54.479,54.579  "></polygon><path d="M25.941,28.538v16.885h19.462V25.961H28.518C27.097,25.961,25.941,27.117,25.941,28.538z M30.092,30.111h11.161v11.161   H30.092V30.111z"></path><path d="M71.443,25.961H54.479v19.462h19.463V27.901C73.654,26.772,72.62,25.961,71.443,25.961z M69.79,41.272H58.629V30.111H69.79   V41.272z"></path><path d="M16,84h68V16H16V84z M75.939,76.038h-12.73V65.309h-10.73v-12.73H65.21v10.73h10.729V76.038z M52.479,23.961h18.965   c2.146,0,4.029,1.521,4.476,3.617l0.022,0.209v19.636H52.479V23.961z M50.98,24.959l0.047,23.994l19.549-0.036v3.661h5.365v6.365   h-2v-4.365h-3.365v3.365h2.338v2h-2.338v2.339h-2v-2.339h-2.34v-2h2.34v-7.022l-17.545,0.032l0.033,17.721h6.779v-2.34h2v2.34h2.34   v2h-2.34v2.338h-2v-2.338h-3.365v3.365h4.365v2h-6.365v-5.365H49.07l-0.039-19.718L24.943,51l-0.004-2l24.088-0.044L48.98,24.963   L50.98,24.959z M23.941,28.538c0-2.524,2.053-4.577,4.577-4.577h18.885v23.462H23.941V28.538z M23.941,52.577h23.462v23.462H28.518   c-2.524,0-4.577-2.055-4.577-4.577V52.577z"></path><path d="M28.518,74.039h16.885V54.577H25.941v16.885C25.941,72.883,27.097,74.039,28.518,74.039z M30.092,58.729h11.161v11.16   H30.092V58.729z"></path></g></svg>