<svg width="428" height="93" viewBox="0 0 428 93" fill="none" xmlns="http://www.w3.org/2000/svg">
<path d="M175.994 63.1212V56.2625H173.443V54.9837H179.975V56.2625H177.424V63.1212H175.994ZM183.261 63.2026C182.763 63.2026 182.323 63.1058 181.941 62.912C181.561 62.7105 181.264 62.4083 181.051 62.0052C180.839 61.5945 180.732 61.0792 180.732 60.4591V56.9135H182.106V60.2615C182.106 60.8195 182.224 61.238 182.458 61.517C182.7 61.7883 183.041 61.9239 183.481 61.9239C183.804 61.9239 184.082 61.8541 184.317 61.7146C184.559 61.5751 184.745 61.3659 184.877 61.0869C185.017 60.8079 185.086 60.463 185.086 60.0522V56.9135H186.461V63.1212H185.152V61.4472L185.383 61.9587C185.185 62.3618 184.896 62.6718 184.515 62.8887C184.134 63.098 183.716 63.2026 183.261 63.2026ZM191.3 63.1212V54.4955H192.674V63.1212H191.3ZM197.238 63.2026C196.586 63.2026 196.014 63.067 195.522 62.7957C195.039 62.5167 194.661 62.137 194.39 61.6565C194.126 61.176 193.994 60.6296 193.994 60.0174C193.994 59.3974 194.123 58.851 194.379 58.3782C194.643 57.8978 195.002 57.5219 195.456 57.2506C195.918 56.9794 196.443 56.8437 197.029 56.8437C197.601 56.8437 198.111 56.9755 198.557 57.239C199.005 57.5025 199.357 57.8745 199.613 58.355C199.87 58.8355 199.998 59.4012 199.998 60.0522C199.998 60.1143 199.994 60.184 199.987 60.2615C199.987 60.339 199.983 60.4126 199.976 60.4824H195.083V59.5175H199.25L198.711 59.8197C198.719 59.4633 198.65 59.1494 198.502 58.8781C198.356 58.6069 198.155 58.3938 197.898 58.2387C197.649 58.0838 197.359 58.0062 197.029 58.0062C196.692 58.0062 196.395 58.0838 196.138 58.2387C195.89 58.3938 195.692 58.6107 195.544 58.8897C195.406 59.161 195.336 59.4826 195.336 59.8546V60.0871C195.336 60.4591 195.417 60.7885 195.577 61.0752C195.739 61.362 195.967 61.5829 196.259 61.7379C196.553 61.8929 196.89 61.9704 197.271 61.9704C197.601 61.9704 197.898 61.9162 198.161 61.8076C198.425 61.6991 198.661 61.5286 198.865 61.2961L199.602 62.1912C199.338 62.5167 199.005 62.7686 198.601 62.9469C198.205 63.1174 197.751 63.2026 197.238 63.2026ZM203.979 65.4579C203.437 65.4579 202.906 65.3804 202.385 65.2254C201.872 65.0782 201.45 64.8611 201.12 64.5744L201.736 63.4816C201.993 63.7064 202.315 63.8846 202.704 64.0164C203.1 64.1559 203.5 64.2256 203.902 64.2256C204.548 64.2256 205.02 64.0668 205.321 63.749C205.622 63.439 205.772 62.9701 205.772 62.3424V61.238L205.882 59.8314L205.838 58.4247V56.9135H207.146V62.1796C207.146 63.3034 206.875 64.1288 206.332 64.6557C205.79 65.1905 205.006 65.4579 203.979 65.4579ZM203.803 62.8422C203.247 62.8422 202.741 62.7183 202.286 62.4702C201.839 62.2145 201.483 61.8619 201.219 61.4124C200.963 60.9629 200.834 60.4359 200.834 59.8314C200.834 59.2346 200.963 58.7115 201.219 58.262C201.483 57.8125 201.839 57.4638 202.286 57.2157C202.741 56.9678 203.247 56.8437 203.803 56.8437C204.302 56.8437 204.749 56.9484 205.145 57.1576C205.541 57.3669 205.856 57.6924 206.091 58.1341C206.332 58.5759 206.453 59.1416 206.453 59.8314C206.453 60.5212 206.332 61.0908 206.091 61.5402C205.856 61.982 205.541 62.3114 205.145 62.5284C204.749 62.7376 204.302 62.8422 203.803 62.8422ZM204.012 61.61C204.357 61.61 204.665 61.5364 204.936 61.3891C205.207 61.2341 205.416 61.0249 205.563 60.7614C205.717 60.4901 205.794 60.1801 205.794 59.8314C205.794 59.4826 205.717 59.1765 205.563 58.913C205.416 58.6418 205.207 58.4364 204.936 58.2969C204.665 58.1497 204.357 58.076 204.012 58.076C203.668 58.076 203.357 58.1497 203.078 58.2969C202.807 58.4364 202.594 58.6418 202.44 58.913C202.293 59.1765 202.22 59.4826 202.22 59.8314C202.22 60.1801 202.293 60.4901 202.44 60.7614C202.594 61.0249 202.807 61.2341 203.078 61.3891C203.357 61.5364 203.668 61.61 204.012 61.61ZM212.571 63.1212V61.8657L212.494 61.5984V59.4012C212.494 58.975 212.373 58.6456 212.132 58.4131C211.89 58.1729 211.523 58.0527 211.032 58.0527C210.702 58.0527 210.376 58.107 210.053 58.2155C209.738 58.324 209.471 58.4752 209.251 58.6689L208.712 57.611C209.026 57.3552 209.4 57.1654 209.833 57.0414C210.273 56.9096 210.727 56.8437 211.197 56.8437C212.047 56.8437 212.703 57.0608 213.165 57.4947C213.634 57.921 213.869 58.5836 213.869 59.4826V63.1212H212.571ZM210.724 63.2026C210.284 63.2026 209.899 63.1252 209.569 62.9701C209.24 62.8074 208.982 62.5865 208.8 62.3075C208.624 62.0208 208.536 61.6991 208.536 61.3426C208.536 60.9939 208.613 60.68 208.767 60.401C208.927 60.122 209.188 59.9011 209.547 59.7384C209.906 59.5756 210.383 59.4942 210.977 59.4942H212.681V60.4591H211.076C210.606 60.4591 210.291 60.5405 210.13 60.7032C209.969 60.8583 209.888 61.052 209.888 61.2845C209.888 61.548 209.987 61.7573 210.185 61.9122C210.383 62.0673 210.658 62.1447 211.01 62.1447C211.347 62.1447 211.648 62.0634 211.912 61.9006C212.182 61.7379 212.377 61.4977 212.494 61.1799L212.725 62.0517C212.593 62.416 212.355 62.6989 212.011 62.9004C211.673 63.1019 211.244 63.2026 210.724 63.2026ZM218.129 63.2026C217.564 63.2026 217.054 63.0709 216.6 62.8074C216.153 62.5361 215.801 62.1641 215.545 61.6914C215.288 61.2187 215.16 60.6607 215.16 60.0174C215.16 59.3741 215.288 58.8161 215.545 58.3434C215.801 57.8707 216.153 57.5025 216.6 57.239C217.054 56.9755 217.564 56.8437 218.129 56.8437C218.62 56.8437 219.06 56.96 219.448 57.1925C219.836 57.4173 220.144 57.7621 220.372 58.2271C220.599 58.6921 220.713 59.2889 220.713 60.0174C220.713 60.7381 220.603 61.3349 220.383 61.8076C220.163 62.2726 219.858 62.6214 219.47 62.8539C219.082 63.0864 218.634 63.2026 218.129 63.2026ZM218.294 61.9587C218.623 61.9587 218.917 61.8813 219.173 61.7262C219.437 61.5713 219.646 61.3465 219.8 61.052C219.962 60.7575 220.042 60.4126 220.042 60.0174C220.042 59.6144 219.962 59.2695 219.8 58.9827C219.646 58.6883 219.437 58.4635 219.173 58.3085C218.917 58.1535 218.623 58.076 218.294 58.076C217.964 58.076 217.667 58.1535 217.403 58.3085C217.147 58.4635 216.938 58.6883 216.776 58.9827C216.622 59.2695 216.545 59.6144 216.545 60.0174C216.545 60.4126 216.622 60.7575 216.776 61.052C216.938 61.3465 217.147 61.5713 217.403 61.7262C217.667 61.8813 217.964 61.9587 218.294 61.9587ZM220.075 63.1212V61.6565L220.13 60.0057L220.02 58.355V54.4955H221.383V63.1212H220.075ZM225.832 63.2026C225.23 63.2026 224.695 63.067 224.226 62.7957C223.757 62.5167 223.386 62.137 223.116 61.6565C222.844 61.176 222.709 60.6296 222.709 60.0174C222.709 59.3974 222.844 58.851 223.116 58.3782C223.386 57.8978 223.757 57.5219 224.226 57.2506C224.695 56.9794 225.23 56.8437 225.832 56.8437C226.44 56.8437 226.979 56.9794 227.448 57.2506C227.924 57.5219 228.295 57.8939 228.559 58.3666C228.829 58.8394 228.966 59.3896 228.966 60.0174C228.966 60.6296 228.829 61.176 228.559 61.6565C228.295 62.137 227.924 62.5167 227.448 62.7957C226.979 63.067 226.44 63.2026 225.832 63.2026ZM225.832 61.9587C226.168 61.9587 226.47 61.8813 226.733 61.7262C226.997 61.5713 227.202 61.3465 227.349 61.052C227.503 60.7575 227.58 60.4126 227.58 60.0174C227.58 59.6144 227.503 59.2695 227.349 58.9827C227.202 58.6883 226.997 58.4635 226.733 58.3085C226.47 58.1535 226.173 58.076 225.843 58.076C225.505 58.076 225.205 58.1535 224.941 58.3085C224.684 58.4635 224.479 58.6883 224.325 58.9827C224.171 59.2695 224.094 59.6144 224.094 60.0174C224.094 60.4126 224.171 60.7575 224.325 61.052C224.479 61.3465 224.684 61.5713 224.941 61.7262C225.205 61.8813 225.502 61.9587 225.832 61.9587ZM236.078 63.2026C235.426 63.2026 234.854 63.067 234.363 62.7957C233.879 62.5167 233.502 62.137 233.23 61.6565C232.967 61.176 232.835 60.6296 232.835 60.0174C232.835 59.3974 232.963 58.851 233.219 58.3782C233.483 57.8978 233.843 57.5219 234.297 57.2506C234.759 56.9794 235.283 56.8437 235.869 56.8437C236.441 56.8437 236.951 56.9755 237.398 57.239C237.845 57.5025 238.197 57.8745 238.454 58.355C238.711 58.8355 238.838 59.4012 238.838 60.0522C238.838 60.1143 238.835 60.184 238.827 60.2615C238.827 60.339 238.824 60.4126 238.816 60.4824H233.923V59.5175H238.091L237.552 59.8197C237.559 59.4633 237.49 59.1494 237.343 58.8781C237.197 58.6069 236.995 58.3938 236.738 58.2387C236.489 58.0838 236.199 58.0062 235.869 58.0062C235.533 58.0062 235.236 58.0838 234.979 58.2387C234.73 58.3938 234.532 58.6107 234.385 58.8897C234.246 59.161 234.176 59.4826 234.176 59.8546V60.0871C234.176 60.4591 234.257 60.7885 234.418 61.0752C234.58 61.362 234.807 61.5829 235.1 61.7379C235.393 61.8929 235.731 61.9704 236.111 61.9704C236.441 61.9704 236.738 61.9162 237.002 61.8076C237.266 61.6991 237.501 61.5286 237.706 61.2961L238.443 62.1912C238.179 62.5167 237.845 62.7686 237.442 62.9469C237.046 63.1174 236.592 63.2026 236.078 63.2026ZM243.491 56.8437C243.96 56.8437 244.378 56.9407 244.744 57.1344C245.118 57.3281 245.412 57.6265 245.624 58.0295C245.837 58.4247 245.943 58.9362 245.943 59.564V63.1212H244.568V59.75C244.568 59.1998 244.444 58.789 244.194 58.5177C243.952 58.2465 243.612 58.1109 243.172 58.1109C242.849 58.1109 242.564 58.1806 242.314 58.3201C242.065 58.4596 241.871 58.6689 241.731 58.9479C241.599 59.2192 241.533 59.564 241.533 59.9825V63.1212H240.159V56.9135H241.467V58.5875L241.236 58.076C241.442 57.6807 241.739 57.3785 242.127 57.1692C242.523 56.9523 242.978 56.8437 243.491 56.8437ZM253.211 63.2026C252.712 63.2026 252.272 63.1058 251.892 62.912C251.51 62.7105 251.213 62.4083 251.001 62.0052C250.788 61.5945 250.682 61.0792 250.682 60.4591V56.9135H252.057V60.2615C252.057 60.8195 252.173 61.238 252.408 61.517C252.65 61.7883 252.991 61.9239 253.431 61.9239C253.753 61.9239 254.032 61.8541 254.267 61.7146C254.509 61.5751 254.696 61.3659 254.828 61.0869C254.966 60.8079 255.036 60.463 255.036 60.0522V56.9135H256.411V63.1212H255.102V61.4472L255.333 61.9587C255.135 62.3618 254.845 62.6718 254.465 62.8887C254.083 63.098 253.665 63.2026 253.211 63.2026ZM261.542 56.8437C262.011 56.8437 262.429 56.9407 262.795 57.1344C263.169 57.3281 263.463 57.6265 263.675 58.0295C263.888 58.4247 263.994 58.9362 263.994 59.564V63.1212H262.619V59.75C262.619 59.1998 262.495 58.789 262.246 58.5177C262.004 58.2465 261.663 58.1109 261.223 58.1109C260.901 58.1109 260.615 58.1806 260.365 58.3201C260.117 58.4596 259.922 58.6689 259.783 58.9479C259.651 59.2192 259.585 59.564 259.585 59.9825V63.1212H258.21V56.9135H259.519V58.5875L259.288 58.076C259.493 57.6807 259.79 57.3785 260.178 57.1692C260.574 56.9523 261.029 56.8437 261.542 56.8437ZM272.515 63.2375C271.915 63.2375 271.361 63.1329 270.855 62.9236C270.349 62.7144 269.909 62.4237 269.535 62.0517C269.161 61.672 268.872 61.2303 268.666 60.7265C268.462 60.215 268.359 59.657 268.359 59.0525C268.359 58.448 268.462 57.8939 268.666 57.3901C268.872 56.8786 269.161 56.4369 269.535 56.0649C269.909 55.6852 270.349 55.3906 270.855 55.1814C271.361 54.9721 271.91 54.8675 272.504 54.8675C273.105 54.8675 273.655 54.9721 274.153 55.1814C274.659 55.3906 275.099 55.6812 275.473 56.0532C275.847 56.4252 276.137 56.867 276.342 57.3785C276.547 57.89 276.65 58.448 276.65 59.0525C276.65 59.657 276.547 60.215 276.342 60.7265C276.137 61.238 275.847 61.6797 275.473 62.0517C275.099 62.4237 274.659 62.7144 274.153 62.9236C273.655 63.1329 273.109 63.2375 272.515 63.2375ZM275.022 64.8999C274.752 64.8999 274.488 64.865 274.23 64.7952C273.982 64.7333 273.732 64.6248 273.483 64.4697C273.241 64.3225 272.988 64.1249 272.724 63.8769C272.46 63.6367 272.171 63.3383 271.855 62.9817L273.373 62.5632C273.578 62.85 273.773 63.0787 273.956 63.2491C274.147 63.4274 274.329 63.5553 274.505 63.6327C274.681 63.7103 274.865 63.749 275.055 63.749C275.561 63.749 276.001 63.532 276.375 63.098L277.034 63.935C276.522 64.5783 275.851 64.8999 275.022 64.8999ZM272.504 61.9122C272.893 61.9122 273.252 61.8425 273.582 61.703C273.912 61.5635 274.197 61.3659 274.439 61.1101C274.681 60.8467 274.868 60.5405 275 60.1917C275.14 59.843 275.209 59.4633 275.209 59.0525C275.209 58.634 275.14 58.2543 275 57.9132C274.868 57.5645 274.681 57.2622 274.439 57.0065C274.197 56.743 273.912 56.5415 273.582 56.402C273.252 56.2625 272.893 56.1927 272.504 56.1927C272.116 56.1927 271.756 56.2625 271.426 56.402C271.097 56.5415 270.811 56.743 270.569 57.0065C270.327 57.2622 270.137 57.5645 269.997 57.9132C269.865 58.2543 269.799 58.634 269.799 59.0525C269.799 59.4633 269.865 59.843 269.997 60.1917C270.137 60.5405 270.327 60.8467 270.569 61.1101C270.811 61.3659 271.097 61.5635 271.426 61.703C271.756 61.8425 272.116 61.9122 272.504 61.9122ZM278.165 63.1212V54.9837H281.332C282.014 54.9837 282.597 55.1 283.081 55.3325C283.571 55.565 283.949 55.8983 284.213 56.3322C284.477 56.7663 284.609 57.2816 284.609 57.8784C284.609 58.4752 284.477 58.9905 284.213 59.4245C283.949 59.8508 283.571 60.1801 283.081 60.4126C282.597 60.6374 282.014 60.7497 281.332 60.7497H278.957L279.595 60.0639V63.1212H278.165ZM283.202 63.1212L281.255 60.1685H282.784L284.741 63.1212H283.202ZM279.595 60.2266L278.957 59.5059H281.266C281.896 59.5059 282.369 59.3625 282.685 59.0757C283.007 58.789 283.169 58.3899 283.169 57.8784C283.169 57.3592 283.007 56.96 282.685 56.681C282.369 56.402 281.896 56.2625 281.266 56.2625H278.957L279.595 55.5185V60.2266Z" fill="#0F223D"/>
<path d="M179.382 33.4979H187.933V36.8781H179.382V33.4979ZM179.686 41.224H189.354V44.7115H175.601V25.9327H189.025V29.4202H179.686V41.224ZM197.78 44.9262C196.173 44.9262 194.921 44.4969 194.024 43.6385C193.128 42.7621 192.68 41.4655 192.68 39.7486V27.0863H196.638V39.6949C196.638 40.303 196.79 40.7769 197.095 41.1167C197.399 41.4387 197.814 41.5996 198.338 41.5996C198.964 41.5996 199.497 41.4208 199.937 41.0631L201.003 44.014C200.597 44.3181 200.106 44.5506 199.531 44.7115C198.973 44.8546 198.389 44.9262 197.78 44.9262ZM190.573 33.8198V30.6006H200.038V33.8198H190.573ZM209.579 44.9262C208.022 44.9262 206.652 44.6042 205.468 43.9604C204.301 43.3165 203.396 42.4402 202.753 41.3314C202.11 40.2046 201.788 38.9259 201.788 37.4951C201.788 36.0465 202.101 34.7677 202.727 33.6589C203.37 32.5321 204.241 31.6558 205.341 31.0298C206.441 30.386 207.684 30.064 209.071 30.064C210.408 30.064 211.609 30.3681 212.675 30.9762C213.757 31.5664 214.612 32.4248 215.237 33.5515C215.863 34.6604 216.176 35.9928 216.176 37.5488C216.176 37.7097 216.168 37.8975 216.151 38.1121C216.134 38.3089 216.117 38.4966 216.1 38.6755H205.011V36.2342H214.019L212.497 36.9586C212.497 36.2074 212.353 35.5546 212.066 35.0002C211.778 34.4458 211.38 34.0165 210.873 33.7125C210.365 33.3906 209.773 33.2296 209.097 33.2296C208.42 33.2296 207.819 33.3906 207.295 33.7125C206.787 34.0165 206.39 34.4547 206.102 35.027C205.815 35.5814 205.671 36.2432 205.671 37.0122V37.6561C205.671 38.443 205.832 39.1405 206.153 39.7486C206.491 40.3388 206.957 40.7948 207.549 41.1167C208.158 41.4208 208.868 41.5728 209.68 41.5728C210.408 41.5728 211.042 41.4565 211.583 41.224C212.142 40.9915 212.649 40.6428 213.106 40.1778L215.212 42.5922C214.586 43.3434 213.8 43.9246 212.852 44.336C211.905 44.7294 210.814 44.9262 209.579 44.9262ZM218.812 44.7115V30.2787H222.593V34.3564L222.06 33.176C222.466 32.1565 223.117 31.3875 224.014 30.8689C224.911 30.3323 226.002 30.064 227.287 30.064V33.9271C227.118 33.9092 226.966 33.9003 226.831 33.9003C226.695 33.8824 226.552 33.8735 226.399 33.8735C225.317 33.8735 224.437 34.2043 223.76 34.8661C223.1 35.5099 222.771 36.5204 222.771 37.8975V44.7115H218.812ZM237.964 30.064C239.046 30.064 240.011 30.2965 240.857 30.7615C241.719 31.2087 242.396 31.9062 242.887 32.854C243.377 33.784 243.622 34.9823 243.622 36.4489V44.7115H239.664V37.0927C239.664 35.9302 239.419 35.0717 238.928 34.5173C238.454 33.9629 237.778 33.6857 236.898 33.6857C236.272 33.6857 235.705 33.8288 235.198 34.1149C234.707 34.3832 234.318 34.8035 234.031 35.3758C233.76 35.9481 233.625 36.6814 233.625 37.5756V44.7115H229.666V30.2787H233.447V34.2759L232.736 33.0687C233.227 32.1029 233.929 31.3607 234.843 30.842C235.756 30.3234 236.796 30.064 237.964 30.064ZM253.807 44.9262C252.352 44.9262 251.058 44.6042 249.924 43.9604C248.808 43.3165 247.919 42.4402 247.26 41.3314C246.617 40.2046 246.295 38.9259 246.295 37.4951C246.295 36.0465 246.617 34.7677 247.26 33.6589C247.919 32.5321 248.808 31.6558 249.924 31.0298C251.058 30.386 252.352 30.064 253.807 30.064C255.244 30.064 256.53 30.386 257.664 31.0298C258.797 31.6558 259.685 32.5232 260.328 33.632C260.971 34.7409 261.292 36.0286 261.292 37.4951C261.292 38.9259 260.971 40.2046 260.328 41.3314C259.685 42.4402 258.797 43.3165 257.664 43.9604C256.53 44.6042 255.244 44.9262 253.807 44.9262ZM253.807 41.4923C254.466 41.4923 255.058 41.3314 255.583 41.0094C256.107 40.6875 256.522 40.2315 256.826 39.6413C257.131 39.0332 257.283 38.3178 257.283 37.4951C257.283 36.6545 257.131 35.9391 256.826 35.3489C256.522 34.7588 256.107 34.3027 255.583 33.9808C255.058 33.6589 254.466 33.4979 253.807 33.4979C253.147 33.4979 252.555 33.6589 252.03 33.9808C251.506 34.3027 251.083 34.7588 250.761 35.3489C250.457 35.9391 250.305 36.6545 250.305 37.4951C250.305 38.3178 250.457 39.0332 250.761 39.6413C251.083 40.2315 251.506 40.6875 252.03 41.0094C252.555 41.3314 253.147 41.4923 253.807 41.4923ZM271.404 44.7115V25.9327H279.092C280.683 25.9327 282.053 26.2099 283.203 26.7643C284.354 27.3009 285.242 28.0789 285.868 29.0983C286.494 30.1177 286.807 31.3339 286.807 32.7467C286.807 34.1417 286.494 35.3489 285.868 36.3684C285.242 37.3699 284.354 38.139 283.203 38.6755C282.053 39.212 280.683 39.4803 279.092 39.4803H273.687L275.514 37.5756V44.7115H271.404ZM282.696 44.7115L278.255 37.8975H282.645L287.136 44.7115H282.696ZM275.514 38.0585L273.687 36.0196H278.864C280.133 36.0196 281.08 35.7335 281.706 35.1612C282.332 34.571 282.645 33.7662 282.645 32.7467C282.645 31.7094 282.332 30.9046 281.706 30.3323C281.08 29.76 280.133 29.4739 278.864 29.4739H273.687L275.514 27.4082V38.0585ZM296.559 44.9262C295.003 44.9262 293.633 44.6042 292.448 43.9604C291.281 43.3165 290.376 42.4402 289.733 41.3314C289.09 40.2046 288.769 38.9259 288.769 37.4951C288.769 36.0465 289.082 34.7677 289.708 33.6589C290.351 32.5321 291.222 31.6558 292.321 31.0298C293.421 30.386 294.664 30.064 296.052 30.064C297.388 30.064 298.589 30.3681 299.655 30.9762C300.738 31.5664 301.592 32.4248 302.218 33.5515C302.844 34.6604 303.157 35.9928 303.157 37.5488C303.157 37.7097 303.148 37.8975 303.131 38.1121C303.114 38.3089 303.098 38.4966 303.081 38.6755H291.992V36.2342H301L299.477 36.9586C299.477 36.2074 299.334 35.5546 299.046 35.0002C298.758 34.4458 298.361 34.0165 297.853 33.7125C297.346 33.3906 296.754 33.2296 296.077 33.2296C295.4 33.2296 294.8 33.3906 294.275 33.7125C293.768 34.0165 293.37 34.4547 293.083 35.027C292.795 35.5814 292.651 36.2432 292.651 37.0122V37.6561C292.651 38.443 292.812 39.1405 293.133 39.7486C293.472 40.3388 293.937 40.7948 294.529 41.1167C295.138 41.4208 295.849 41.5728 296.661 41.5728C297.388 41.5728 298.022 41.4565 298.564 41.224C299.122 40.9915 299.63 40.6428 300.086 40.1778L302.193 42.5922C301.567 43.3434 300.78 43.9246 299.833 44.336C298.885 44.7294 297.794 44.9262 296.559 44.9262ZM312.39 44.9262C310.918 44.9262 309.607 44.6132 308.457 43.9872C307.307 43.3434 306.401 42.4581 305.742 41.3314C305.099 40.2046 304.777 38.9259 304.777 37.4951C304.777 36.0465 305.099 34.7677 305.742 33.6589C306.401 32.5321 307.307 31.6558 308.457 31.0298C309.607 30.386 310.918 30.064 312.39 30.064C313.828 30.064 315.08 30.386 316.146 31.0298C317.211 31.6558 317.998 32.559 318.506 33.7393L315.435 35.4831C315.08 34.8035 314.632 34.3027 314.09 33.9808C313.566 33.6589 312.991 33.4979 312.365 33.4979C311.688 33.4979 311.079 33.6589 310.538 33.9808C309.996 34.3027 309.565 34.7588 309.244 35.3489C308.939 35.9391 308.787 36.6545 308.787 37.4951C308.787 38.3357 308.939 39.0511 309.244 39.6413C309.565 40.2315 309.996 40.6875 310.538 41.0094C311.079 41.3314 311.688 41.4923 312.365 41.4923C312.991 41.4923 313.566 41.3403 314.09 41.0363C314.632 40.7143 315.08 40.2046 315.435 39.5071L318.506 41.2777C317.998 42.4402 317.211 43.3434 316.146 43.9872C315.08 44.6132 313.828 44.9262 312.39 44.9262ZM326.545 44.9262C325.412 44.9262 324.397 44.6937 323.5 44.2287C322.621 43.7637 321.935 43.0572 321.445 42.1093C320.954 41.1436 320.709 39.9185 320.709 38.434V30.2787H324.668V37.817C324.668 39.0153 324.904 39.9006 325.378 40.4729C325.869 41.0273 326.554 41.3045 327.434 41.3045C328.043 41.3045 328.584 41.1704 329.058 40.9021C329.531 40.616 329.903 40.1867 330.174 39.6144C330.445 39.0242 330.58 38.291 330.58 37.4146V30.2787H334.539V44.7115H330.783V40.7412L331.468 41.8947C331.011 42.8963 330.335 43.6564 329.438 44.175C328.559 44.6758 327.594 44.9262 326.545 44.9262ZM344.981 44.9262C343.424 44.9262 342.054 44.6042 340.87 43.9604C339.703 43.3165 338.798 42.4402 338.155 41.3314C337.512 40.2046 337.19 38.9259 337.19 37.4951C337.19 36.0465 337.503 34.7677 338.129 33.6589C338.772 32.5321 339.643 31.6558 340.743 31.0298C341.843 30.386 343.086 30.064 344.473 30.064C345.81 30.064 347.011 30.3681 348.076 30.9762C349.159 31.5664 350.013 32.4248 350.639 33.5515C351.265 34.6604 351.578 35.9928 351.578 37.5488C351.578 37.7097 351.57 37.8975 351.553 38.1121C351.536 38.3089 351.519 38.4966 351.502 38.6755H340.413V36.2342H349.421L347.899 36.9586C347.899 36.2074 347.755 35.5546 347.467 35.0002C347.18 34.4458 346.782 34.0165 346.275 33.7125C345.767 33.3906 345.175 33.2296 344.499 33.2296C343.822 33.2296 343.221 33.3906 342.697 33.7125C342.189 34.0165 341.792 34.4547 341.504 35.027C341.217 35.5814 341.073 36.2432 341.073 37.0122V37.6561C341.073 38.443 341.234 39.1405 341.555 39.7486C341.893 40.3388 342.359 40.7948 342.951 41.1167C343.56 41.4208 344.27 41.5728 345.082 41.5728C345.81 41.5728 346.444 41.4565 346.985 41.224C347.544 40.9915 348.051 40.6428 348.508 40.1778L350.614 42.5922C349.988 43.3434 349.201 43.9246 348.254 44.336C347.307 44.7294 346.216 44.9262 344.981 44.9262ZM354.214 44.7115V30.2787H357.995V34.3564L357.462 33.176C357.868 32.1565 358.519 31.3875 359.416 30.8689C360.313 30.3323 361.404 30.064 362.689 30.064V33.9271C362.52 33.9092 362.368 33.9003 362.233 33.9003C362.097 33.8824 361.953 33.8735 361.801 33.8735C360.719 33.8735 359.839 34.2043 359.162 34.8661C358.502 35.5099 358.173 36.5204 358.173 37.8975V44.7115H354.214ZM370.806 44.9262C369.52 44.9262 368.362 44.6221 367.33 44.014C366.298 43.3881 365.477 42.5207 364.868 41.4118C364.276 40.303 363.98 38.9974 363.98 37.4951C363.98 35.9749 364.276 34.6604 364.868 33.5515C365.477 32.4427 366.298 31.5842 367.33 30.9762C368.362 30.3681 369.52 30.064 370.806 30.064C371.956 30.064 372.963 30.3323 373.826 30.8689C374.689 31.4054 375.357 32.2191 375.83 33.3101C376.304 34.4011 376.541 35.7961 376.541 37.4951C376.541 39.1763 376.313 40.5713 375.856 41.6801C375.399 42.7711 374.739 43.5848 373.877 44.1214C373.031 44.6579 372.007 44.9262 370.806 44.9262ZM371.491 41.4923C372.134 41.4923 372.718 41.3314 373.242 41.0094C373.767 40.6875 374.181 40.2315 374.486 39.6413C374.807 39.0332 374.968 38.3178 374.968 37.4951C374.968 36.6545 374.807 35.9391 374.486 35.3489C374.181 34.7588 373.767 34.3027 373.242 33.9808C372.718 33.6589 372.134 33.4979 371.491 33.4979C370.832 33.4979 370.239 33.6589 369.715 33.9808C369.191 34.3027 368.768 34.7588 368.446 35.3489C368.142 35.9391 367.989 36.6545 367.989 37.4951C367.989 38.3178 368.142 39.0332 368.446 39.6413C368.768 40.2315 369.191 40.6875 369.715 41.0094C370.239 41.3314 370.832 41.4923 371.491 41.4923ZM375.069 44.7115V41.7606L375.145 37.4683L374.892 33.2028V24.806H378.85V44.7115H375.069ZM389.01 44.9262C387.555 44.9262 386.261 44.6042 385.127 43.9604C384.011 43.3165 383.123 42.4402 382.463 41.3314C381.82 40.2046 381.499 38.9259 381.499 37.4951C381.499 36.0465 381.82 34.7677 382.463 33.6589C383.123 32.5321 384.011 31.6558 385.127 31.0298C386.261 30.386 387.555 30.064 389.01 30.064C390.448 30.064 391.733 30.386 392.867 31.0298C394 31.6558 394.888 32.5232 395.531 33.632C396.174 34.7409 396.495 36.0286 396.495 37.4951C396.495 38.9259 396.174 40.2046 395.531 41.3314C394.888 42.4402 394 43.3165 392.867 43.9604C391.733 44.6042 390.448 44.9262 389.01 44.9262ZM389.01 41.4923C389.669 41.4923 390.262 41.3314 390.786 41.0094C391.31 40.6875 391.725 40.2315 392.029 39.6413C392.334 39.0332 392.486 38.3178 392.486 37.4951C392.486 36.6545 392.334 35.9391 392.029 35.3489C391.725 34.7588 391.31 34.3027 390.786 33.9808C390.262 33.6589 389.669 33.4979 389.01 33.4979C388.35 33.4979 387.758 33.6589 387.233 33.9808C386.709 34.3027 386.286 34.7588 385.965 35.3489C385.66 35.9391 385.508 36.6545 385.508 37.4951C385.508 38.3178 385.66 39.0332 385.965 39.6413C386.286 40.2315 386.709 40.6875 387.233 41.0094C387.758 41.3314 388.35 41.4923 389.01 41.4923Z" fill="#0F223D"/>
<path d="M57.2668 46.8812L62.3414 52.068L67.4161 46.8812L62.3414 41.6944L57.2668 46.8812Z" fill="#0F223D"/>
<path d="M49.8672 52.068L54.9418 46.8812L49.8678 41.6939L44.7926 46.8812L49.8672 52.068Z" fill="#0F223D"/>
<path d="M13.0667 48.3648L22.8816 58.3968L34.1946 46.8337L22.8816 35.2706L13.0667 45.3026C12.2406 46.1469 12.2406 47.5206 13.0667 48.3648ZM16.3939 46.8331L22.8816 40.2019L29.3693 46.8331L22.8816 53.4643L16.3939 46.8331Z" fill="#0F223D"/>
<path d="M38.0183 19.7993L28.1573 29.8782L39.4703 41.4413L50.7838 29.8777L40.5986 19.4672C39.7749 18.9675 38.7025 19.1001 38.0183 19.7993ZM45.9574 29.8782L39.4697 36.5094L32.9821 29.8782L39.4697 23.247L45.9574 29.8782Z" fill="#0F223D"/>
<path d="M39.5273 87.2231L79.0546 46.8218L39.5273 6.42053L0 46.8218L39.5273 87.2231ZM69.7407 46.8807L62.3409 54.444L56.1044 48.0696L49.8672 54.4446L42.4674 46.8812L49.8677 39.3173L56.1049 45.6923L62.3415 39.3179L69.7407 46.8807ZM25.8323 29.8782L36.8563 18.6105C38.1038 17.3354 40.0825 17.1203 41.5606 18.1L41.6949 18.2112L53.109 29.8777L39.4703 43.8179L25.8323 29.8782ZM25.541 31.3618L39.5156 45.5896L50.8582 33.9534L52.9863 36.1285L56.1049 32.9411L59.8048 36.7227L58.6423 37.911L56.1049 35.3176L54.1489 37.3168L56.1049 39.3161L57.464 37.927L58.6265 39.1153L57.2675 40.5044L58.6271 41.8941L57.4645 43.0823L56.1049 41.6926L54.7448 43.083L53.5821 41.8946L54.9423 40.5044L50.8606 36.3323L40.6806 46.7755L51.0007 57.2846L54.9412 53.2569L53.5809 51.8666L54.7436 50.6784L56.1038 52.0686L57.464 50.6784L58.6265 51.8666L57.2663 53.2569L58.6253 54.646L57.4628 55.8343L56.1038 54.4452L54.1477 56.4445L56.1038 58.4437L58.6411 55.8504L59.8036 57.0386L56.1038 60.8203L52.9851 57.6327L51.0041 59.6575L39.5197 47.9656L25.5433 62.3033L24.3785 61.1174L38.3548 46.7796L24.3808 32.5524L25.541 31.3618ZM11.9041 49.5531C10.4369 48.0535 10.4369 45.6139 11.9041 44.1144L22.8817 32.8941L36.5197 46.8337L22.8817 60.7734L11.9041 49.5531ZM25.8776 63.8356L39.5156 49.8959L53.1537 63.8356L42.1762 75.0558C40.7091 76.5554 38.3211 76.5542 36.8551 75.0558L25.8776 63.8356Z" fill="#0F223D"/>
<path d="M41.0137 73.8676L50.8286 63.8355L39.5157 52.2724L28.2028 63.8355L38.0177 73.8676C38.8437 74.7118 40.1877 74.7118 41.0137 73.8676ZM33.0292 63.8362L39.5168 57.205L46.004 63.8355L39.5163 70.4667L33.0292 63.8362Z" fill="#0F223D"/>
<path d="M89.0654 46.6015L83.9905 41.4147L78.9159 46.6015L83.9905 51.7883L89.0646 46.6021L89.0654 46.6015Z" fill="#0F223D"/>
<path d="M96.465 41.4147L91.3907 46.6015L91.3899 46.602L96.4641 51.7888L101.539 46.6015L96.465 41.4147Z" fill="#0F223D"/>
<path d="M133.265 45.118L123.45 35.0859L112.138 46.6491L123.45 58.2121L133.265 48.1801C134.092 47.3358 134.092 45.9622 133.265 45.118ZM129.938 46.6496L123.45 53.2808L116.962 46.6496L123.45 40.0184L129.938 46.6496Z" fill="#0F223D"/>
<path d="M108.314 73.6834L118.175 63.6045L106.862 52.0414L95.5481 63.6051L105.734 74.0156C106.557 74.5153 107.629 74.3827 108.314 73.6834ZM100.375 63.6045L106.862 56.9733L113.35 63.6045L106.862 70.2356L100.375 63.6045Z" fill="#0F223D"/>
<path d="M106.805 6.25958L67.2775 46.6609L106.805 87.0622L146.332 46.6609L106.805 6.25958ZM76.5914 46.6021L83.9911 39.0387L90.2277 45.4132L96.4649 39.0381L103.864 46.6015L96.4641 54.1654L90.2268 47.7904L83.9905 54.1648L76.5914 46.6021ZM120.5 63.6045L109.476 74.8723C108.228 76.1473 106.25 76.3624 104.771 75.3827L104.638 75.2715L93.2228 63.6051L106.861 49.6649L120.5 63.6045ZM120.791 62.1209L106.816 47.8931L95.4736 59.5293L93.3455 57.3542L90.2268 60.5417L86.5271 56.76L87.6901 55.5718L90.2268 58.1651L92.1833 56.1659L90.2268 54.1666L88.8684 55.5557L87.7053 54.3674L89.0646 52.9783L87.7053 51.5887L88.8675 50.4004L90.2268 51.7901L91.5869 50.3998L92.75 51.5881L91.3898 52.9783L95.4711 57.1504L105.652 46.7073L95.3315 36.1982L91.3907 40.2258L92.7508 41.6161L91.5886 42.8043L90.2285 41.4141L88.8684 42.8043L87.7053 41.6161L89.0655 40.2258L87.707 38.8367L88.8692 37.6484L90.2285 39.0375L92.1841 37.0382L90.2285 35.039L87.6909 37.6323L86.5287 36.4441L90.2285 32.6624L93.3471 35.85L95.3281 33.8252L106.812 45.5171L120.789 31.1795L121.954 32.3653L107.977 46.7031L121.951 60.9303L120.791 62.1209ZM134.428 43.9296C135.895 45.4292 135.895 47.8688 134.428 49.3684L123.45 60.5887L109.812 46.649L123.45 32.7093L134.428 43.9296ZM120.454 29.6472L106.816 43.5869L93.178 29.6472L104.155 18.427C105.623 16.9273 108.011 16.9285 109.477 18.427L120.454 29.6472Z" fill="#0F223D"/>
<path d="M105.318 19.6152L95.5032 29.6472L106.816 41.2103L118.13 29.6472L108.314 19.6152C107.488 18.771 106.144 18.771 105.318 19.6152ZM113.303 29.6466L106.816 36.2778L100.328 29.6472L106.816 23.0161L113.303 29.6466Z" fill="#0F223D"/>
<path d="M160.711 0V93" stroke="#0F223D" stroke-width="2"/>
</svg>
