<svg width="506" height="104" viewBox="0 0 506 104" fill="none" xmlns="http://www.w3.org/2000/svg">
<path d="M208.068 70.5872V62.9172H205.052V61.4872H212.774V62.9172H209.758V70.5872H208.068ZM216.659 70.6782C216.07 70.6782 215.55 70.5699 215.099 70.3532C214.649 70.1279 214.298 69.7899 214.046 69.3392C213.795 68.8799 213.669 68.3036 213.669 67.6102V63.6452H215.294V67.3892C215.294 68.0132 215.433 68.4812 215.71 68.7932C215.996 69.0966 216.399 69.2482 216.919 69.2482C217.301 69.2482 217.63 69.1702 217.907 69.0142C218.193 68.8582 218.414 68.6242 218.57 68.3122C218.735 68.0002 218.817 67.6146 218.817 67.1552V63.6452H220.442V70.5872H218.895V68.7152L219.168 69.2872C218.934 69.7379 218.592 70.0846 218.141 70.3272C217.691 70.5612 217.197 70.6782 216.659 70.6782ZM226.163 70.5872V60.9412H227.788V70.5872H226.163ZM233.183 70.6782C232.412 70.6782 231.736 70.5266 231.155 70.2232C230.583 69.9112 230.137 69.4866 229.816 68.9492C229.504 68.4119 229.348 67.8009 229.348 67.1162C229.348 66.4229 229.5 65.8119 229.803 65.2832C230.115 64.7459 230.54 64.3256 231.077 64.0222C231.623 63.7189 232.243 63.5672 232.936 63.5672C233.612 63.5672 234.215 63.7146 234.743 64.0092C235.272 64.3039 235.688 64.7199 235.991 65.2572C236.295 65.7946 236.446 66.4272 236.446 67.1552C236.446 67.2246 236.442 67.3026 236.433 67.3892C236.433 67.4759 236.429 67.5582 236.42 67.6362H230.635V66.5572H235.562L234.925 66.8952C234.934 66.4966 234.852 66.1456 234.678 65.8422C234.505 65.5389 234.267 65.3006 233.963 65.1272C233.669 64.9539 233.326 64.8672 232.936 64.8672C232.538 64.8672 232.187 64.9539 231.883 65.1272C231.589 65.3006 231.355 65.5432 231.181 65.8552C231.017 66.1586 230.934 66.5182 230.934 66.9342V67.1942C230.934 67.6102 231.03 67.9786 231.22 68.2992C231.411 68.6199 231.68 68.8669 232.026 69.0402C232.373 69.2136 232.772 69.3002 233.222 69.3002C233.612 69.3002 233.963 69.2396 234.275 69.1182C234.587 68.9969 234.865 68.8062 235.107 68.5462L235.978 69.5472C235.666 69.9112 235.272 70.1929 234.795 70.3922C234.327 70.5829 233.79 70.6782 233.183 70.6782ZM241.153 73.2002C240.512 73.2002 239.884 73.1136 239.268 72.9402C238.662 72.7756 238.163 72.5329 237.773 72.2122L238.501 70.9902C238.805 71.2416 239.186 71.4409 239.645 71.5882C240.113 71.7442 240.586 71.8222 241.062 71.8222C241.825 71.8222 242.384 71.6446 242.739 71.2892C243.095 70.9426 243.272 70.4182 243.272 69.7162V68.4812L243.402 66.9082L243.35 65.3352V63.6452H244.897V69.5342C244.897 70.7909 244.577 71.7139 243.935 72.3032C243.294 72.9012 242.367 73.2002 241.153 73.2002ZM240.945 70.2752C240.287 70.2752 239.689 70.1366 239.151 69.8592C238.623 69.5732 238.202 69.1789 237.89 68.6762C237.587 68.1736 237.435 67.5842 237.435 66.9082C237.435 66.2409 237.587 65.6559 237.89 65.1532C238.202 64.6506 238.623 64.2606 239.151 63.9832C239.689 63.7059 240.287 63.5672 240.945 63.5672C241.535 63.5672 242.063 63.6842 242.531 63.9182C242.999 64.1522 243.372 64.5162 243.649 65.0102C243.935 65.5042 244.078 66.1369 244.078 66.9082C244.078 67.6796 243.935 68.3166 243.649 68.8192C243.372 69.3132 242.999 69.6816 242.531 69.9242C242.063 70.1582 241.535 70.2752 240.945 70.2752ZM241.192 68.8972C241.6 68.8972 241.964 68.8149 242.284 68.6502C242.605 68.4769 242.852 68.2429 243.025 67.9482C243.207 67.6449 243.298 67.2982 243.298 66.9082C243.298 66.5182 243.207 66.1759 243.025 65.8812C242.852 65.5779 242.605 65.3482 242.284 65.1922C241.964 65.0276 241.6 64.9452 241.192 64.9452C240.785 64.9452 240.417 65.0276 240.087 65.1922C239.767 65.3482 239.515 65.5779 239.333 65.8812C239.16 66.1759 239.073 66.5182 239.073 66.9082C239.073 67.2982 239.16 67.6449 239.333 67.9482C239.515 68.2429 239.767 68.4769 240.087 68.6502C240.417 68.8149 240.785 68.8972 241.192 68.8972ZM251.311 70.5872V69.1832L251.22 68.8842V66.4272C251.22 65.9506 251.077 65.5822 250.791 65.3222C250.505 65.0536 250.071 64.9192 249.491 64.9192C249.101 64.9192 248.715 64.9799 248.334 65.1012C247.961 65.2226 247.645 65.3916 247.385 65.6082L246.748 64.4252C247.12 64.1392 247.562 63.9269 248.074 63.7882C248.594 63.6409 249.131 63.5672 249.686 63.5672C250.691 63.5672 251.467 63.8099 252.013 64.2952C252.567 64.7719 252.845 65.5129 252.845 66.5182V70.5872H251.311ZM249.127 70.6782C248.607 70.6782 248.152 70.5916 247.762 70.4182C247.372 70.2362 247.068 69.9892 246.852 69.6772C246.644 69.3566 246.54 68.9969 246.54 68.5982C246.54 68.2082 246.631 67.8572 246.813 67.5452C247.003 67.2332 247.311 66.9862 247.736 66.8042C248.16 66.6222 248.724 66.5312 249.426 66.5312H251.441V67.6102H249.543C248.988 67.6102 248.615 67.7012 248.425 67.8832C248.234 68.0566 248.139 68.2732 248.139 68.5332C248.139 68.8279 248.256 69.0619 248.49 69.2352C248.724 69.4086 249.049 69.4952 249.465 69.4952C249.863 69.4952 250.219 69.4042 250.531 69.2222C250.851 69.0402 251.081 68.7716 251.22 68.4162L251.493 69.3912C251.337 69.7986 251.055 70.1149 250.648 70.3402C250.249 70.5656 249.742 70.6782 249.127 70.6782ZM257.881 70.6782C257.214 70.6782 256.611 70.5309 256.074 70.2362C255.545 69.9329 255.129 69.5169 254.826 68.9882C254.523 68.4596 254.371 67.8356 254.371 67.1162C254.371 66.3969 254.523 65.7729 254.826 65.2442C255.129 64.7156 255.545 64.3039 256.074 64.0092C256.611 63.7146 257.214 63.5672 257.881 63.5672C258.462 63.5672 258.982 63.6972 259.441 63.9572C259.9 64.2086 260.264 64.5942 260.533 65.1142C260.802 65.6342 260.936 66.3016 260.936 67.1162C260.936 67.9222 260.806 68.5896 260.546 69.1182C260.286 69.6382 259.926 70.0282 259.467 70.2882C259.008 70.5482 258.479 70.6782 257.881 70.6782ZM258.076 69.2872C258.466 69.2872 258.813 69.2006 259.116 69.0272C259.428 68.8539 259.675 68.6026 259.857 68.2732C260.048 67.9439 260.143 67.5582 260.143 67.1162C260.143 66.6656 260.048 66.2799 259.857 65.9592C259.675 65.6299 259.428 65.3786 259.116 65.2052C258.813 65.0319 258.466 64.9452 258.076 64.9452C257.686 64.9452 257.335 65.0319 257.023 65.2052C256.72 65.3786 256.473 65.6299 256.282 65.9592C256.1 66.2799 256.009 66.6656 256.009 67.1162C256.009 67.5582 256.1 67.9439 256.282 68.2732C256.473 68.6026 256.72 68.8539 257.023 69.0272C257.335 69.2006 257.686 69.2872 258.076 69.2872ZM260.182 70.5872V68.9492L260.247 67.1032L260.117 65.2572V60.9412H261.729V70.5872H260.182ZM266.988 70.6782C266.277 70.6782 265.644 70.5266 265.09 70.2232C264.535 69.9112 264.097 69.4866 263.777 68.9492C263.456 68.4119 263.296 67.8009 263.296 67.1162C263.296 66.4229 263.456 65.8119 263.777 65.2832C264.097 64.7459 264.535 64.3256 265.09 64.0222C265.644 63.7189 266.277 63.5672 266.988 63.5672C267.707 63.5672 268.344 63.7189 268.899 64.0222C269.462 64.3256 269.9 64.7416 270.212 65.2702C270.532 65.7989 270.693 66.4142 270.693 67.1162C270.693 67.8009 270.532 68.4119 270.212 68.9492C269.9 69.4866 269.462 69.9112 268.899 70.2232C268.344 70.5266 267.707 70.6782 266.988 70.6782ZM266.988 69.2872C267.386 69.2872 267.742 69.2006 268.054 69.0272C268.366 68.8539 268.608 68.6026 268.782 68.2732C268.964 67.9439 269.055 67.5582 269.055 67.1162C269.055 66.6656 268.964 66.2799 268.782 65.9592C268.608 65.6299 268.366 65.3786 268.054 65.2052C267.742 65.0319 267.391 64.9452 267.001 64.9452C266.602 64.9452 266.247 65.0319 265.935 65.2052C265.631 65.3786 265.389 65.6299 265.207 65.9592C265.025 66.2799 264.934 66.6656 264.934 67.1162C264.934 67.5582 265.025 67.9439 265.207 68.2732C265.389 68.6026 265.631 68.8539 265.935 69.0272C266.247 69.2006 266.598 69.2872 266.988 69.2872ZM279.102 70.6782C278.331 70.6782 277.655 70.5266 277.074 70.2232C276.502 69.9112 276.056 69.4866 275.735 68.9492C275.423 68.4119 275.267 67.8009 275.267 67.1162C275.267 66.4229 275.419 65.8119 275.722 65.2832C276.034 64.7459 276.459 64.3256 276.996 64.0222C277.542 63.7189 278.162 63.5672 278.855 63.5672C279.531 63.5672 280.134 63.7146 280.662 64.0092C281.191 64.3039 281.607 64.7199 281.91 65.2572C282.214 65.7946 282.365 66.4272 282.365 67.1552C282.365 67.2246 282.361 67.3026 282.352 67.3892C282.352 67.4759 282.348 67.5582 282.339 67.6362H276.554V66.5572H281.481L280.844 66.8952C280.853 66.4966 280.771 66.1456 280.597 65.8422C280.424 65.5389 280.186 65.3006 279.882 65.1272C279.588 64.9539 279.245 64.8672 278.855 64.8672C278.457 64.8672 278.106 64.9539 277.802 65.1272C277.508 65.3006 277.274 65.5432 277.1 65.8552C276.936 66.1586 276.853 66.5182 276.853 66.9342V67.1942C276.853 67.6102 276.949 67.9786 277.139 68.2992C277.33 68.6199 277.599 68.8669 277.945 69.0402C278.292 69.2136 278.691 69.3002 279.141 69.3002C279.531 69.3002 279.882 69.2396 280.194 69.1182C280.506 68.9969 280.784 68.8062 281.026 68.5462L281.897 69.5472C281.585 69.9112 281.191 70.1929 280.714 70.3922C280.246 70.5829 279.709 70.6782 279.102 70.6782ZM287.865 63.5672C288.42 63.5672 288.914 63.6756 289.347 63.8922C289.789 64.1089 290.136 64.4426 290.387 64.8932C290.639 65.3352 290.764 65.9072 290.764 66.6092V70.5872H289.139V66.8172C289.139 66.2019 288.992 65.7426 288.697 65.4392C288.411 65.1359 288.008 64.9842 287.488 64.9842C287.107 64.9842 286.769 65.0622 286.474 65.2182C286.18 65.3742 285.95 65.6082 285.785 65.9202C285.629 66.2236 285.551 66.6092 285.551 67.0772V70.5872H283.926V63.6452H285.473V65.5172L285.2 64.9452C285.443 64.5032 285.794 64.1652 286.253 63.9312C286.721 63.6886 287.259 63.5672 287.865 63.5672ZM299.357 70.6782C298.767 70.6782 298.247 70.5699 297.797 70.3532C297.346 70.1279 296.995 69.7899 296.744 69.3392C296.492 68.8799 296.367 68.3036 296.367 67.6102V63.6452H297.992V67.3892C297.992 68.0132 298.13 68.4812 298.408 68.7932C298.694 69.0966 299.097 69.2482 299.617 69.2482C299.998 69.2482 300.327 69.1702 300.605 69.0142C300.891 68.8582 301.112 68.6242 301.268 68.3122C301.432 68.0002 301.515 67.6146 301.515 67.1552V63.6452H303.14V70.5872H301.593V68.7152L301.866 69.2872C301.632 69.7379 301.289 70.0846 300.839 70.3272C300.388 70.5612 299.894 70.6782 299.357 70.6782ZM309.206 63.5672C309.761 63.5672 310.255 63.6756 310.688 63.8922C311.13 64.1089 311.477 64.4426 311.728 64.8932C311.98 65.3352 312.105 65.9072 312.105 66.6092V70.5872H310.48V66.8172C310.48 66.2019 310.333 65.7426 310.038 65.4392C309.752 65.1359 309.349 64.9842 308.829 64.9842C308.448 64.9842 308.11 65.0622 307.815 65.2182C307.521 65.3742 307.291 65.6082 307.126 65.9202C306.97 66.2236 306.892 66.6092 306.892 67.0772V70.5872H305.267V63.6452H306.814V65.5172L306.541 64.9452C306.784 64.5032 307.135 64.1652 307.594 63.9312C308.062 63.6886 308.6 63.5672 309.206 63.5672ZM322.179 70.7172C321.469 70.7172 320.814 70.6002 320.216 70.3662C319.618 70.1322 319.098 69.8072 318.656 69.3912C318.214 68.9666 317.872 68.4726 317.629 67.9092C317.387 67.3372 317.265 66.7132 317.265 66.0372C317.265 65.3612 317.387 64.7416 317.629 64.1782C317.872 63.6062 318.214 63.1122 318.656 62.6962C319.098 62.2716 319.618 61.9422 320.216 61.7082C320.814 61.4742 321.464 61.3572 322.166 61.3572C322.877 61.3572 323.527 61.4742 324.116 61.7082C324.714 61.9422 325.234 62.2672 325.676 62.6832C326.118 63.0992 326.461 63.5932 326.703 64.1652C326.946 64.7372 327.067 65.3612 327.067 66.0372C327.067 66.7132 326.946 67.3372 326.703 67.9092C326.461 68.4812 326.118 68.9752 325.676 69.3912C325.234 69.8072 324.714 70.1322 324.116 70.3662C323.527 70.6002 322.881 70.7172 322.179 70.7172ZM325.143 72.5762C324.823 72.5762 324.511 72.5372 324.207 72.4592C323.913 72.3899 323.618 72.2686 323.323 72.0952C323.037 71.9306 322.738 71.7096 322.426 71.4322C322.114 71.1636 321.772 70.8299 321.399 70.4312L323.193 69.9632C323.436 70.2839 323.666 70.5396 323.882 70.7302C324.108 70.9296 324.324 71.0726 324.532 71.1592C324.74 71.2459 324.957 71.2892 325.182 71.2892C325.78 71.2892 326.3 71.0466 326.742 70.5612L327.522 71.4972C326.916 72.2166 326.123 72.5762 325.143 72.5762ZM322.166 69.2352C322.626 69.2352 323.05 69.1572 323.44 69.0012C323.83 68.8452 324.168 68.6242 324.454 68.3382C324.74 68.0436 324.961 67.7012 325.117 67.3112C325.282 66.9212 325.364 66.4966 325.364 66.0372C325.364 65.5692 325.282 65.1446 325.117 64.7632C324.961 64.3732 324.74 64.0352 324.454 63.7492C324.168 63.4546 323.83 63.2292 323.44 63.0732C323.05 62.9172 322.626 62.8392 322.166 62.8392C321.707 62.8392 321.282 62.9172 320.892 63.0732C320.502 63.2292 320.164 63.4546 319.878 63.7492C319.592 64.0352 319.367 64.3732 319.202 64.7632C319.046 65.1446 318.968 65.5692 318.968 66.0372C318.968 66.4966 319.046 66.9212 319.202 67.3112C319.367 67.7012 319.592 68.0436 319.878 68.3382C320.164 68.6242 320.502 68.8452 320.892 69.0012C321.282 69.1572 321.707 69.2352 322.166 69.2352ZM328.859 70.5872V61.4872H332.603C333.409 61.4872 334.098 61.6172 334.67 61.8772C335.25 62.1372 335.697 62.5099 336.009 62.9952C336.321 63.4806 336.477 64.0569 336.477 64.7242C336.477 65.3916 336.321 65.9679 336.009 66.4532C335.697 66.9299 335.25 67.2982 334.67 67.5582C334.098 67.8096 333.409 67.9352 332.603 67.9352H329.795L330.549 67.1682V70.5872H328.859ZM334.813 70.5872L332.512 67.2852H334.319L336.633 70.5872H334.813ZM330.549 67.3502L329.795 66.5442H332.525C333.27 66.5442 333.829 66.3839 334.202 66.0632C334.583 65.7426 334.774 65.2962 334.774 64.7242C334.774 64.1436 334.583 63.6972 334.202 63.3852C333.829 63.0732 333.27 62.9172 332.525 62.9172H329.795L330.549 62.0852V67.3502Z" fill="#4D4D4D"/>
<path d="M212.073 37.46H222.183V41.24H212.073V37.46ZM212.433 46.1H223.863V50H207.603V29H223.473V32.9H212.433V46.1ZM233.824 50.24C231.924 50.24 230.444 49.76 229.384 48.8C228.324 47.82 227.794 46.37 227.794 44.45V30.29H232.474V44.39C232.474 45.07 232.654 45.6 233.014 45.98C233.374 46.34 233.864 46.52 234.484 46.52C235.224 46.52 235.854 46.32 236.374 45.92L237.634 49.22C237.154 49.56 236.574 49.82 235.894 50C235.234 50.16 234.544 50.24 233.824 50.24ZM225.304 37.82V34.22H236.494V37.82H225.304ZM247.773 50.24C245.933 50.24 244.313 49.88 242.913 49.16C241.533 48.44 240.463 47.46 239.703 46.22C238.943 44.96 238.563 43.53 238.563 41.93C238.563 40.31 238.933 38.88 239.673 37.64C240.433 36.38 241.463 35.4 242.763 34.7C244.063 33.98 245.533 33.62 247.173 33.62C248.753 33.62 250.173 33.96 251.433 34.64C252.713 35.3 253.723 36.26 254.463 37.52C255.203 38.76 255.573 40.25 255.573 41.99C255.573 42.17 255.563 42.38 255.543 42.62C255.523 42.84 255.503 43.05 255.483 43.25H242.373V40.52H253.023L251.223 41.33C251.223 40.49 251.053 39.76 250.713 39.14C250.373 38.52 249.903 38.04 249.303 37.7C248.703 37.34 248.003 37.16 247.203 37.16C246.403 37.16 245.693 37.34 245.073 37.7C244.473 38.04 244.003 38.53 243.663 39.17C243.323 39.79 243.153 40.53 243.153 41.39V42.11C243.153 42.99 243.343 43.77 243.723 44.45C244.123 45.11 244.673 45.62 245.373 45.98C246.093 46.32 246.933 46.49 247.893 46.49C248.753 46.49 249.503 46.36 250.143 46.1C250.803 45.84 251.403 45.45 251.943 44.93L254.433 47.63C253.693 48.47 252.763 49.12 251.643 49.58C250.523 50.02 249.233 50.24 247.773 50.24ZM258.689 50V33.86H263.159V38.42L262.529 37.1C263.009 35.96 263.779 35.1 264.839 34.52C265.899 33.92 267.189 33.62 268.709 33.62V37.94C268.509 37.92 268.329 37.91 268.169 37.91C268.009 37.89 267.839 37.88 267.659 37.88C266.379 37.88 265.339 38.25 264.539 38.99C263.759 39.71 263.369 40.84 263.369 42.38V50H258.689ZM281.331 33.62C282.611 33.62 283.751 33.88 284.751 34.4C285.771 34.9 286.571 35.68 287.151 36.74C287.731 37.78 288.021 39.12 288.021 40.76V50H283.341V41.48C283.341 40.18 283.051 39.22 282.471 38.6C281.911 37.98 281.111 37.67 280.071 37.67C279.331 37.67 278.661 37.83 278.061 38.15C277.481 38.45 277.021 38.92 276.681 39.56C276.361 40.2 276.201 41.02 276.201 42.02V50H271.521V33.86H275.991V38.33L275.151 36.98C275.731 35.9 276.561 35.07 277.641 34.49C278.721 33.91 279.951 33.62 281.331 33.62ZM300.061 50.24C298.341 50.24 296.811 49.88 295.471 49.16C294.151 48.44 293.101 47.46 292.321 46.22C291.561 44.96 291.181 43.53 291.181 41.93C291.181 40.31 291.561 38.88 292.321 37.64C293.101 36.38 294.151 35.4 295.471 34.7C296.811 33.98 298.341 33.62 300.061 33.62C301.761 33.62 303.281 33.98 304.621 34.7C305.961 35.4 307.011 36.37 307.771 37.61C308.531 38.85 308.911 40.29 308.911 41.93C308.911 43.53 308.531 44.96 307.771 46.22C307.011 47.46 305.961 48.44 304.621 49.16C303.281 49.88 301.761 50.24 300.061 50.24ZM300.061 46.4C300.841 46.4 301.541 46.22 302.161 45.86C302.781 45.5 303.271 44.99 303.631 44.33C303.991 43.65 304.171 42.85 304.171 41.93C304.171 40.99 303.991 40.19 303.631 39.53C303.271 38.87 302.781 38.36 302.161 38C301.541 37.64 300.841 37.46 300.061 37.46C299.281 37.46 298.581 37.64 297.961 38C297.341 38.36 296.841 38.87 296.461 39.53C296.101 40.19 295.921 40.99 295.921 41.93C295.921 42.85 296.101 43.65 296.461 44.33C296.841 44.99 297.341 45.5 297.961 45.86C298.581 46.22 299.281 46.4 300.061 46.4ZM320.865 50V29H329.955C331.835 29 333.455 29.31 334.815 29.93C336.175 30.53 337.225 31.4 337.965 32.54C338.705 33.68 339.075 35.04 339.075 36.62C339.075 38.18 338.705 39.53 337.965 40.67C337.225 41.79 336.175 42.65 334.815 43.25C333.455 43.85 331.835 44.15 329.955 44.15H323.565L325.725 42.02V50H320.865ZM334.215 50L328.965 42.38H334.155L339.465 50H334.215ZM325.725 42.56L323.565 40.28H329.685C331.185 40.28 332.305 39.96 333.045 39.32C333.785 38.66 334.155 37.76 334.155 36.62C334.155 35.46 333.785 34.56 333.045 33.92C332.305 33.28 331.185 32.96 329.685 32.96H323.565L325.725 30.65V42.56ZM350.605 50.24C348.765 50.24 347.145 49.88 345.745 49.16C344.365 48.44 343.295 47.46 342.535 46.22C341.775 44.96 341.395 43.53 341.395 41.93C341.395 40.31 341.765 38.88 342.505 37.64C343.265 36.38 344.295 35.4 345.595 34.7C346.895 33.98 348.365 33.62 350.005 33.62C351.585 33.62 353.005 33.96 354.265 34.64C355.545 35.3 356.555 36.26 357.295 37.52C358.035 38.76 358.405 40.25 358.405 41.99C358.405 42.17 358.395 42.38 358.375 42.62C358.355 42.84 358.335 43.05 358.315 43.25H345.205V40.52H355.855L354.055 41.33C354.055 40.49 353.885 39.76 353.545 39.14C353.205 38.52 352.735 38.04 352.135 37.7C351.535 37.34 350.835 37.16 350.035 37.16C349.235 37.16 348.525 37.34 347.905 37.7C347.305 38.04 346.835 38.53 346.495 39.17C346.155 39.79 345.985 40.53 345.985 41.39V42.11C345.985 42.99 346.175 43.77 346.555 44.45C346.955 45.11 347.505 45.62 348.205 45.98C348.925 46.32 349.765 46.49 350.725 46.49C351.585 46.49 352.335 46.36 352.975 46.1C353.635 45.84 354.235 45.45 354.775 44.93L357.265 47.63C356.525 48.47 355.595 49.12 354.475 49.58C353.355 50.02 352.065 50.24 350.605 50.24ZM369.321 50.24C367.581 50.24 366.031 49.89 364.671 49.19C363.311 48.47 362.241 47.48 361.461 46.22C360.701 44.96 360.321 43.53 360.321 41.93C360.321 40.31 360.701 38.88 361.461 37.64C362.241 36.38 363.311 35.4 364.671 34.7C366.031 33.98 367.581 33.62 369.321 33.62C371.021 33.62 372.501 33.98 373.761 34.7C375.021 35.4 375.951 36.41 376.551 37.73L372.921 39.68C372.501 38.92 371.971 38.36 371.331 38C370.711 37.64 370.031 37.46 369.291 37.46C368.491 37.46 367.771 37.64 367.131 38C366.491 38.36 365.981 38.87 365.601 39.53C365.241 40.19 365.061 40.99 365.061 41.93C365.061 42.87 365.241 43.67 365.601 44.33C365.981 44.99 366.491 45.5 367.131 45.86C367.771 46.22 368.491 46.4 369.291 46.4C370.031 46.4 370.711 46.23 371.331 45.89C371.971 45.53 372.501 44.96 372.921 44.18L376.551 46.16C375.951 47.46 375.021 48.47 373.761 49.19C372.501 49.89 371.021 50.24 369.321 50.24ZM386.056 50.24C384.716 50.24 383.516 49.98 382.456 49.46C381.416 48.94 380.606 48.15 380.026 47.09C379.446 46.01 379.156 44.64 379.156 42.98V33.86H383.836V42.29C383.836 43.63 384.116 44.62 384.676 45.26C385.256 45.88 386.066 46.19 387.106 46.19C387.826 46.19 388.466 46.04 389.026 45.74C389.586 45.42 390.026 44.94 390.346 44.3C390.666 43.64 390.826 42.82 390.826 41.84V33.86H395.506V50H391.066V45.56L391.876 46.85C391.336 47.97 390.536 48.82 389.476 49.4C388.436 49.96 387.296 50.24 386.056 50.24ZM407.851 50.24C406.011 50.24 404.391 49.88 402.991 49.16C401.611 48.44 400.541 47.46 399.781 46.22C399.021 44.96 398.641 43.53 398.641 41.93C398.641 40.31 399.011 38.88 399.751 37.64C400.511 36.38 401.541 35.4 402.841 34.7C404.141 33.98 405.611 33.62 407.251 33.62C408.831 33.62 410.251 33.96 411.511 34.64C412.791 35.3 413.801 36.26 414.541 37.52C415.281 38.76 415.651 40.25 415.651 41.99C415.651 42.17 415.641 42.38 415.621 42.62C415.601 42.84 415.581 43.05 415.561 43.25H402.451V40.52H413.101L411.301 41.33C411.301 40.49 411.131 39.76 410.791 39.14C410.451 38.52 409.981 38.04 409.381 37.7C408.781 37.34 408.081 37.16 407.281 37.16C406.481 37.16 405.771 37.34 405.151 37.7C404.551 38.04 404.081 38.53 403.741 39.17C403.401 39.79 403.231 40.53 403.231 41.39V42.11C403.231 42.99 403.421 43.77 403.801 44.45C404.201 45.11 404.751 45.62 405.451 45.98C406.171 46.32 407.011 46.49 407.971 46.49C408.831 46.49 409.581 46.36 410.221 46.1C410.881 45.84 411.481 45.45 412.021 44.93L414.511 47.63C413.771 48.47 412.841 49.12 411.721 49.58C410.601 50.02 409.311 50.24 407.851 50.24ZM418.767 50V33.86H423.237V38.42L422.607 37.1C423.087 35.96 423.857 35.1 424.917 34.52C425.977 33.92 427.267 33.62 428.787 33.62V37.94C428.587 37.92 428.407 37.91 428.247 37.91C428.087 37.89 427.917 37.88 427.737 37.88C426.457 37.88 425.417 38.25 424.617 38.99C423.837 39.71 423.447 40.84 423.447 42.38V50H418.767ZM438.383 50.24C436.863 50.24 435.493 49.9 434.273 49.22C433.053 48.52 432.083 47.55 431.363 46.31C430.663 45.07 430.313 43.61 430.313 41.93C430.313 40.23 430.663 38.76 431.363 37.52C432.083 36.28 433.053 35.32 434.273 34.64C435.493 33.96 436.863 33.62 438.383 33.62C439.743 33.62 440.933 33.92 441.953 34.52C442.973 35.12 443.763 36.03 444.323 37.25C444.883 38.47 445.163 40.03 445.163 41.93C445.163 43.81 444.893 45.37 444.353 46.61C443.813 47.83 443.033 48.74 442.013 49.34C441.013 49.94 439.803 50.24 438.383 50.24ZM439.193 46.4C439.953 46.4 440.643 46.22 441.263 45.86C441.883 45.5 442.373 44.99 442.733 44.33C443.113 43.65 443.303 42.85 443.303 41.93C443.303 40.99 443.113 40.19 442.733 39.53C442.373 38.87 441.883 38.36 441.263 38C440.643 37.64 439.953 37.46 439.193 37.46C438.413 37.46 437.713 37.64 437.093 38C436.473 38.36 435.973 38.87 435.593 39.53C435.233 40.19 435.053 40.99 435.053 41.93C435.053 42.85 435.233 43.65 435.593 44.33C435.973 44.99 436.473 45.5 437.093 45.86C437.713 46.22 438.413 46.4 439.193 46.4ZM443.423 50V46.7L443.513 41.9L443.213 37.13V27.74H447.893V50H443.423ZM459.904 50.24C458.184 50.24 456.654 49.88 455.314 49.16C453.994 48.44 452.944 47.46 452.164 46.22C451.404 44.96 451.024 43.53 451.024 41.93C451.024 40.31 451.404 38.88 452.164 37.64C452.944 36.38 453.994 35.4 455.314 34.7C456.654 33.98 458.184 33.62 459.904 33.62C461.604 33.62 463.124 33.98 464.464 34.7C465.804 35.4 466.854 36.37 467.614 37.61C468.374 38.85 468.754 40.29 468.754 41.93C468.754 43.53 468.374 44.96 467.614 46.22C466.854 47.46 465.804 48.44 464.464 49.16C463.124 49.88 461.604 50.24 459.904 50.24ZM459.904 46.4C460.684 46.4 461.384 46.22 462.004 45.86C462.624 45.5 463.114 44.99 463.474 44.33C463.834 43.65 464.014 42.85 464.014 41.93C464.014 40.99 463.834 40.19 463.474 39.53C463.114 38.87 462.624 38.36 462.004 38C461.384 37.64 460.684 37.46 459.904 37.46C459.124 37.46 458.424 37.64 457.804 38C457.184 38.36 456.684 38.87 456.304 39.53C455.944 40.19 455.764 40.99 455.764 41.93C455.764 42.85 455.944 43.65 456.304 44.33C456.684 44.99 457.184 45.5 457.804 45.86C458.424 46.22 459.124 46.4 459.904 46.4Z" fill="#4D4D4D"/>
<path d="M67.7034 52.4263L73.7028 58.2266L79.7023 52.4263L73.7028 46.626L67.7041 52.4257L67.7034 52.4263Z" fill="#739D2E"/>
<path d="M58.9551 58.2266L64.9545 52.4263L64.9552 52.4257L58.9558 46.6254L52.9557 52.4263L58.9551 58.2266Z" fill="#739D2E"/>
<path d="M15.448 54.0854L27.0516 65.304L40.4263 52.3732L27.0516 39.4424L15.448 50.661C14.4714 51.6051 14.4714 53.1413 15.448 54.0854ZM19.3816 52.3725L27.0516 44.957L34.7217 52.3725L27.0516 59.788L19.3816 52.3725Z" fill="#739D2E"/>
<path d="M44.9469 22.1412L33.2889 33.4122L46.6636 46.343L60.0389 33.4116L47.9975 21.7698C47.0237 21.211 45.7558 21.3592 44.9469 22.1412ZM54.3329 33.4122L46.6629 40.8277L38.9929 33.4122L46.6629 25.9967L54.3329 33.4122Z" fill="#739D2E"/>
<path d="M46.7309 97.5398L93.4617 52.3599L46.7309 7.17994L0 52.3599L46.7309 97.5398ZM82.4504 52.4257L73.7021 60.8836L66.329 53.7552L58.9551 60.8843L50.2068 52.4263L58.9558 43.9677L66.3296 51.0968L73.7028 43.9684L82.4504 52.4257ZM30.54 33.4122L43.5731 20.8117C45.0479 19.3858 47.3872 19.1453 49.1347 20.2409L49.2935 20.3652L62.7877 33.4116L46.6635 49.0006L30.54 33.4122ZM30.1957 35.0713L46.7171 50.9819L60.1268 37.9694L62.6427 40.4018L66.3296 36.8373L70.7038 41.0662L69.3294 42.3951L66.3296 39.4949L64.0172 41.7306L66.3296 43.9664L67.9364 42.413L69.3108 43.7418L67.7041 45.2952L69.3115 46.8493L67.937 48.1781L66.3296 46.624L64.7216 48.1788L63.3471 46.8499L64.9552 45.2952L60.1296 40.6297L48.0943 52.3081L60.2952 64.0602L64.9538 59.5561L63.3457 58.0014L64.7202 56.6726L66.3283 58.2273L67.9364 56.6726L69.3108 58.0014L67.7027 59.5561L69.3094 61.1095L67.935 62.4383L66.3283 60.885L64.0158 63.1207L66.3283 65.3564L69.328 62.4563L70.7024 63.7851L66.3283 68.0141L62.6413 64.4495L60.2993 66.7138L46.7219 53.6389L30.1984 69.6725L28.8213 68.3463L45.3447 52.3127L28.824 36.4027L30.1957 35.0713ZM14.0735 55.4142C12.339 53.7372 12.339 51.0091 14.0735 49.3322L27.0517 36.7848L43.1752 52.3732L27.0517 67.9616L14.0735 55.4142ZM30.5936 71.386L46.7171 55.7976L62.8406 71.386L49.8625 83.9334C48.128 85.6103 45.3049 85.609 43.5717 83.9334L30.5936 71.386Z" fill="#739D2E"/>
<path d="M48.4881 82.6046L60.0918 71.386L46.7172 58.4552L33.3425 71.386L44.9462 82.6046C45.9227 83.5487 47.5116 83.5487 48.4881 82.6046ZM39.0485 71.3867L46.7185 63.9712L54.3879 71.386L46.7179 78.8015L39.0485 71.3867Z" fill="#739D2E"/>
<path d="M105.297 52.1135L99.2972 46.3132L93.2978 52.1135L99.2972 57.9138L105.296 52.1142L105.297 52.1135Z" fill="#9DA48E"/>
<path d="M114.045 46.3132L108.046 52.1135L108.045 52.1141L114.044 57.9144L120.044 52.1135L114.045 46.3132Z" fill="#9DA48E"/>
<path d="M157.552 50.4545L145.948 39.2359L132.574 52.1667L145.948 65.0974L157.552 53.8788C158.529 52.9347 158.529 51.3986 157.552 50.4545ZM153.618 52.1673L145.948 59.5828L138.278 52.1673L145.948 44.7518L153.618 52.1673Z" fill="#9DA48E"/>
<path d="M128.053 82.3987L139.711 71.1276L126.337 58.1969L112.961 71.1283L125.003 82.7701C125.976 83.3289 127.244 83.1807 128.053 82.3987ZM118.667 71.1276L126.337 63.7121L134.007 71.1276L126.337 78.5431L118.667 71.1276Z" fill="#9DA48E"/>
<path d="M126.269 6.99998L79.5383 52.1799L126.269 97.3599L173 52.1799L126.269 6.99998ZM90.5496 52.1142L99.2979 43.6562L106.671 50.7847L114.045 43.6555L122.793 52.1135L114.044 60.5721L106.67 53.443L99.2972 60.5714L90.5496 52.1142ZM142.46 71.1276L129.427 83.7282C127.952 85.154 125.613 85.3945 123.865 84.2989L123.707 84.1746L110.212 71.1283L126.336 55.5392L142.46 71.1276ZM142.804 69.4686L126.283 53.5579L112.873 66.5704L110.357 64.138L106.67 67.7026L102.296 63.4736L103.671 62.1448L106.67 65.0449L108.983 62.8092L106.67 60.5734L105.064 62.1268L103.689 60.798L105.296 59.2446L103.689 57.6906L105.063 56.3617L106.67 57.9158L108.278 56.3611L109.653 57.6899L108.045 59.2446L112.87 63.9101L124.906 52.2318L112.705 40.4797L108.046 44.9837L109.654 46.5384L108.28 47.8672L106.672 46.3125L105.064 47.8672L103.689 46.5384L105.297 44.9837L103.691 43.4303L105.065 42.1015L106.672 43.6549L108.984 41.4191L106.672 39.1834L103.672 42.0835L102.298 40.7547L106.672 36.5257L110.359 40.0903L112.701 37.826L126.278 50.9009L142.802 34.8674L144.179 36.1935L127.655 52.2271L144.176 68.1371L142.804 69.4686ZM158.926 49.1256C160.661 50.8026 160.661 53.5307 158.926 55.2077L145.948 67.7551L129.825 52.1666L145.948 36.5782L158.926 49.1256ZM142.406 33.1539L126.283 48.7423L110.159 33.1539L123.137 20.6065C124.872 18.9295 127.695 18.9308 129.428 20.6065L142.406 33.1539Z" fill="#9DA48E"/>
<path d="M124.512 21.9353L112.908 33.1539L126.283 46.0846L139.658 33.1539L128.054 21.9353C127.077 20.9912 125.488 20.9912 124.512 21.9353ZM133.952 33.1532L126.282 40.5687L118.612 33.1539L126.282 25.7384L133.952 33.1532Z" fill="#9DA48E"/>
<line x1="190" x2="190" y2="104" stroke="#4D4D4D" stroke-width="2"/>
</svg>
