<svg width="184" height="98" viewBox="0 0 184 98" fill="none" xmlns="http://www.w3.org/2000/svg">
<path d="M70.5795 49.0707L76.7525 55.2438L82.9256 49.0707L76.7525 42.8977L70.5802 49.07L70.5795 49.0707Z" fill="#739D2E"/>
<path d="M61.578 55.2438L67.751 49.0707L67.7517 49.07L61.5787 42.897L55.4049 49.0707L61.578 55.2438Z" fill="#739D2E"/>
<path d="M16.8118 50.8364L28.7513 62.7759L42.513 49.0142L28.7513 35.2524L16.8118 47.1919C15.807 48.1967 15.807 49.8316 16.8118 50.8364ZM20.8593 49.0135L28.7513 41.1214L36.6433 49.0135L28.7513 56.9055L20.8593 49.0135Z" fill="#739D2E"/>
<path d="M47.1643 16.8394L35.169 28.8347L48.9307 42.5964L62.6931 28.834L50.3032 16.4441C49.3012 15.8494 47.9966 16.0071 47.1643 16.8394ZM56.822 28.8347L48.93 36.7267L41.038 28.8347L48.93 20.9427L56.822 28.8347Z" fill="#739D2E"/>
<path d="M49 97.0833L97.0832 49L49 0.91674L0.916718 49L49 97.0833ZM85.7533 49.07L76.7518 58.0715L69.1652 50.4849L61.578 58.0722L52.5765 49.0707L61.5787 40.0685L69.166 47.6558L76.7525 40.0692L85.7533 49.07ZM32.3405 28.8347L45.7508 15.4244C47.2683 13.907 49.6753 13.651 51.4734 14.817L51.6368 14.9493L65.5215 28.834L48.9307 45.4249L32.3405 28.8347ZM31.9863 30.6004L48.9858 47.5335L62.7836 33.6848L65.3723 36.2735L69.166 32.4799L73.6667 36.9806L72.2525 38.3948L69.166 35.3083L66.7865 37.6877L69.166 40.0671L70.8192 38.4139L72.2334 39.8281L70.5802 41.4813L72.2341 43.1353L70.8199 44.5495L69.166 42.8956L67.5113 44.5502L66.0971 43.136L67.7517 41.4813L62.7864 36.516L50.4029 48.9448L62.9569 61.4522L67.7503 56.6587L66.0957 55.004L67.5099 53.5898L69.1645 55.2445L70.8192 53.5898L72.2334 55.004L70.5788 56.6587L72.232 58.3119L70.8178 59.7261L69.1645 58.0729L66.7851 60.4523L69.1645 62.8317L72.2511 59.7452L73.6653 61.1594L69.1645 65.6601L65.3709 61.8665L62.9611 64.2763L48.9908 50.3612L31.9891 67.4251L30.5721 66.0137L47.5737 48.9498L30.5749 32.0174L31.9863 30.6004ZM15.3976 52.2506C13.6128 50.4658 13.6128 47.5625 15.3976 45.7777L28.7513 32.424L45.3414 49.0141L28.7513 65.6043L15.3976 52.2506ZM32.3957 69.2487L48.9858 52.6586L65.576 69.2487L52.2223 82.6024C50.4375 84.3872 47.5327 84.3857 45.7494 82.6024L32.3957 69.2487Z" fill="#739D2E"/>
<path d="M50.808 81.1882L62.7475 69.2487L48.9858 55.487L35.2241 69.2487L47.1636 81.1882C48.1684 82.193 49.8032 82.193 50.808 81.1882ZM41.0952 69.2494L48.9872 61.3574L56.8786 69.2487L48.9865 77.1407L41.0952 69.2494Z" fill="#739D2E"/>
<path d="M113.504 49.0125L107.331 42.8395L101.158 49.0125L107.331 55.1856L113.503 49.0132L113.504 49.0125Z" fill="#9DA48E"/>
<path d="M122.505 42.8395L116.332 49.0125L116.332 49.0132L122.505 55.1863L128.678 49.0125L122.505 42.8395Z" fill="#9DA48E"/>
<path d="M167.271 47.2469L155.332 35.3074L141.57 49.0691L155.332 62.8308L167.271 50.8913C168.276 49.8865 168.276 48.2517 167.271 47.2469ZM163.224 49.0698L155.332 56.9618L147.44 49.0698L155.332 41.1778L163.224 49.0698Z" fill="#9DA48E"/>
<path d="M136.919 81.2439L148.914 69.2485L135.153 55.4868L121.39 69.2492L133.78 81.6392C134.782 82.2338 136.087 82.0762 136.919 81.2439ZM127.261 69.2485L135.153 61.3565L143.045 69.2485L135.153 77.1406L127.261 69.2485Z" fill="#9DA48E"/>
<path d="M135.083 0.999992L87 49.0833L135.083 97.1665L183.167 49.0833L135.083 0.999992ZM98.33 49.0132L107.331 40.0118L114.918 47.5983L122.505 40.0111L131.507 49.0125L122.505 58.0147L114.917 50.4275L107.331 58.014L98.33 49.0132ZM151.743 69.2485L138.332 82.6588C136.815 84.1763 134.408 84.4322 132.61 83.2662L132.446 83.134L118.562 69.2492L135.153 52.6584L151.743 69.2485ZM152.097 67.4829L135.097 50.5498L121.3 64.3985L118.711 61.8098L114.917 65.6034L110.417 61.1027L111.831 59.6884L114.917 62.775L117.297 60.3955L114.917 58.0161L113.264 59.6693L111.85 58.2551L113.503 56.6019L111.849 54.948L113.263 53.5338L114.917 55.1877L116.572 53.5331L117.986 54.9473L116.332 56.6019L121.297 61.5672L133.68 49.1384L121.126 36.6311L116.333 41.4246L117.988 43.0792L116.573 44.4934L114.919 42.8388L113.264 44.4934L111.85 43.0792L113.504 41.4246L111.851 39.7714L113.265 38.3571L114.919 40.0104L117.298 37.6309L114.919 35.2515L111.832 38.3381L110.418 36.9238L114.919 32.4231L118.712 36.2167L121.122 33.8069L135.092 47.7221L152.094 30.6582L153.511 32.0696L136.51 49.1335L153.508 66.0658L152.097 67.4829ZM168.686 45.8327C170.47 47.6174 170.47 50.5208 168.686 52.3055L155.332 65.6592L138.742 49.0691L155.332 32.479L168.686 45.8327ZM151.688 28.8345L135.097 45.4247L118.507 28.8345L131.861 15.4808C133.646 13.6961 136.551 13.6975 138.334 15.4808L151.688 28.8345Z" fill="#9DA48E"/>
<path d="M133.275 16.8951L121.336 28.8346L135.097 42.5963L148.859 28.8346L136.92 16.8951C135.915 15.8903 134.28 15.8903 133.275 16.8951ZM142.988 28.8339L135.096 36.7259L127.205 28.8346L135.097 20.9426L142.988 28.8339Z" fill="#9DA48E"/>
</svg>
