<svg width="263" height="300" viewBox="0 0 263 300" fill="none" xmlns="http://www.w3.org/2000/svg">
<g clip-path="url(#clip0_18_3)">
<path d="M100.834 183.733C102.328 186.661 102.047 189.816 100.206 190.778C98.3651 191.741 95.661 190.147 94.1665 187.219C93.5123 185.937 93.1983 184.612 93.2065 183.446L87.0274 170.957L92.8794 168.147L98.3496 180.757C99.2935 181.425 100.179 182.451 100.834 183.733Z" fill="#FFB6B6"/>
<path d="M54.8505 296.418L60.1189 296.417L62.6251 275.849L54.8495 275.849L54.8505 296.418Z" fill="#FFB6B6"/>
<path d="M72.9007 296.297C73.0647 296.577 73.1513 297.479 73.1513 297.804C73.1513 298.804 72.3507 299.614 71.3632 299.614H55.0476C54.3739 299.614 53.8277 299.061 53.8277 298.38V297.692C53.8277 297.692 53.0206 295.626 54.6823 293.079C54.6823 293.079 56.7476 295.073 59.8337 291.949L60.7437 290.281L67.3313 295.157L70.9827 295.612C71.7815 295.712 72.4898 295.597 72.9007 296.297Z" fill="#2F2E41"/>
<path d="M30.1342 296.418L35.4026 296.417L37.9088 275.849L30.1332 275.849L30.1342 296.418Z" fill="#FFB6B6"/>
<path d="M48.1844 296.297C48.3484 296.577 48.435 297.479 48.435 297.804C48.435 298.804 47.6344 299.614 46.6469 299.614H30.3313C29.6576 299.614 29.1114 299.061 29.1114 298.38V297.692C29.1114 297.692 28.3043 295.626 29.966 293.079C29.966 293.079 32.0313 295.073 35.1174 291.949L36.0275 290.281L42.615 295.157L46.2664 295.612C47.0652 295.712 47.7735 295.597 48.1844 296.297Z" fill="#2F2E41"/>
<path d="M22.677 175.06L20.4575 188.788L27.3624 233.218L29.0887 286.883H38.4111L43.1451 236.213L42.6519 202.766L53.7491 287.383H63.4366L64.3531 181.3L22.677 175.06Z" fill="#2F2E41"/>
<path d="M34.2673 103.922H51.7199L66.8191 112.908C64.4691 112.303 62.6536 134.371 62.5918 153.87C62.5877 155.166 61.3193 156.655 61.331 157.921C61.3411 159.011 62.6294 159.882 62.6517 160.94C62.6727 161.929 62.699 162.901 62.731 163.853C62.7576 164.644 61.2965 165.691 61.331 166.452C61.375 167.423 62.917 168.098 62.9743 169.012C63.3263 174.633 63.933 179.086 64.8462 181.3C64.8462 181.3 25.8828 192.283 22.9235 175.31C22.9235 175.31 23.0925 169.209 23.0688 160.784C23.0667 160.037 22.4378 159.359 22.4324 158.577C22.4284 157.996 23.0487 157.319 23.0426 156.722C23.0376 156.231 22.4389 155.797 22.4324 155.296C22.4285 154.998 23.0174 154.636 23.0129 154.334C22.7763 138.314 21.7136 118.124 17.9915 112.908L34.2673 103.922Z" fill="#739D2E"/>
<path d="M51.5296 103.922C51.5296 103.922 62.8386 108.082 66.4271 111.396C68.3339 113.157 81.1221 146.355 81.1221 146.355L98.8844 177.666L89.6516 181.215L70.7648 152.346L62.3802 133.376L51.5296 103.922Z" fill="#739D2E"/>
<path d="M28.0727 184.918C29.7222 187.76 29.6108 190.925 27.8241 191.987C26.0373 193.05 23.2518 191.607 21.6023 188.765C20.8803 187.521 20.4958 186.215 20.4413 185.051L13.6014 172.92L19.294 169.792L25.4326 182.083C26.411 182.698 27.3507 183.674 28.0727 184.918Z" fill="#FFB6B6"/>
<path d="M31.8013 119.398L26.8692 107.916C26.8692 107.916 15.2788 111.66 15.2788 117.151C15.2788 117.151 8.37389 159.085 9.3603 169.569L15.772 181.05L24.8964 173.812L19.2245 160.583L31.8013 119.398Z" fill="#739D2E"/>
<path d="M21.658 193.993L27.4757 182.298L34.2673 191.784L28.1549 197.774L21.658 193.993Z" fill="#739D2E"/>
<path d="M42.8292 100.624C49.0631 100.624 54.1166 95.5086 54.1166 89.1988C54.1166 82.889 49.0631 77.7739 42.8292 77.7739C36.5953 77.7739 31.5417 82.889 31.5417 89.1988C31.5417 95.5086 36.5953 100.624 42.8292 100.624Z" fill="#FFB6B6"/>
<path d="M51.631 76.4362C49.6695 75.8004 48.7413 73.4387 46.9471 72.415C44.9628 71.2829 42.589 70.5762 40.4009 71.2168C39.0584 71.6098 37.8887 72.4785 36.5452 72.8682C36.3103 72.9363 36.0632 72.9833 35.8124 73.0075C34.3675 73.1468 33.127 74.0239 32.4049 75.2983L32.3861 75.3312C31.9622 76.0655 31.3596 76.6736 30.8248 77.3295C28.8734 79.7231 27.8171 82.8338 27.8389 85.937C27.8622 89.2728 29.1303 92.5847 31.334 95.0652L31.8969 94.8025C33.2573 95.9919 34.6176 97.1813 35.978 98.3707C35.2377 95.6668 34.4905 92.8683 34.8824 90.0908C35.2743 87.3132 37.1197 84.5421 39.8406 84.0058C40.8699 83.803 41.9555 83.9256 42.9547 83.6035C43.9539 83.2815 44.8742 82.2417 44.5314 81.2386C45.1501 82.8942 47.4578 82.7964 49.0462 83.5371C52.6011 85.1949 51.2998 82.6329 54.3858 85.07C55.4281 79.2227 59.421 78.9616 51.631 76.4362Z" fill="#2F2E41"/>
<path d="M0 299.219C0 299.652 0.343624 300 0.771528 300H262.229C262.656 300 263 299.652 263 299.219C263 298.786 262.656 298.438 262.229 298.438H0.771528C0.343624 298.438 0 298.786 0 299.219Z" fill="#CCCCCC"/>
<path d="M228.025 300H113.647C99.7004 300 88.3541 288.516 88.3541 274.399V25.6006C88.3541 11.4845 99.7004 0 113.647 0H228.025C241.971 0 253.317 11.4845 253.317 25.6006V274.399C253.317 288.516 241.971 300 228.025 300Z" fill="#3F3D56"/>
<path d="M253.317 91.5162C252.727 91.5162 252.247 92.002 252.247 92.5993V127.256C252.247 127.854 252.727 128.339 253.317 128.339C253.907 128.339 254.387 127.854 254.387 127.256V92.5993C254.387 92.002 253.907 91.5162 253.317 91.5162Z" fill="#3F3D56"/>
<path d="M250.91 25.6008V274.395C250.91 286.682 241.462 296.732 229.515 297.512H229.51C229.333 297.523 229.157 297.534 228.975 297.539C228.659 297.555 228.344 297.561 228.023 297.561C228.023 297.561 226.846 297.474 224.695 297.312C222.523 297.149 219.361 296.906 215.418 296.586C214.235 296.494 212.989 296.391 211.673 296.283C209.051 296.066 206.173 295.828 203.086 295.557C201.855 295.454 200.582 295.341 199.282 295.227C192.637 294.648 185.195 293.971 177.347 293.202C176.02 293.077 174.683 292.947 173.335 292.812C172.981 292.774 172.623 292.741 172.265 292.703C166.668 292.146 90.7618 277.297 90.7618 274.395V25.6008C90.7618 12.8048 101.007 2.4348 113.649 2.4348H127.313C129.496 2.4348 131.251 4.15682 131.438 6.36079C131.454 6.50701 131.47 6.65319 131.497 6.79942C131.893 9.01423 133.899 10.5575 136.125 10.5575H205.547C207.773 10.5575 209.779 9.01423 210.175 6.79942C210.202 6.65319 210.218 6.50701 210.234 6.36079C210.421 4.15682 212.176 2.4348 214.359 2.4348H228.023C240.665 2.4348 250.91 12.8048 250.91 25.6008Z" fill="white"/>
<path d="M87.8191 65.5235C87.229 65.5235 86.7491 66.0092 86.7491 66.6065V75.2708C86.7491 75.8681 87.229 76.3538 87.8191 76.3538C88.4093 76.3538 88.8892 75.8681 88.8892 75.2708V66.6065C88.8892 66.0092 88.4093 65.5235 87.8191 65.5235Z" fill="#3F3D56"/>
<path d="M87.8191 91.5162C87.229 91.5162 86.7491 92.002 86.7491 92.5993V109.386C86.7491 109.984 87.229 110.469 87.8191 110.469C88.4093 110.469 88.8892 109.984 88.8892 109.386V92.5993C88.8892 92.002 88.4093 91.5162 87.8191 91.5162Z" fill="#3F3D56"/>
<path d="M87.8191 115.343C87.229 115.343 86.7491 115.829 86.7491 116.426V133.213C86.7491 133.81 87.229 134.296 87.8191 134.296C88.4093 134.296 88.8892 133.81 88.8892 133.213V116.426C88.8892 115.829 88.4093 115.343 87.8191 115.343Z" fill="#3F3D56"/>
<path d="M126.941 6.22751H106.478C106.367 6.22751 106.277 6.31865 106.277 6.43107V8.73153C106.277 8.84395 106.367 8.93509 106.478 8.93509H126.941C127.052 8.93509 127.142 8.84395 127.142 8.73153V6.43107C127.142 6.31865 127.052 6.22751 126.941 6.22751Z" fill="#E6E6E6"/>
<path d="M217.74 8.93509C218.922 8.93509 219.88 7.96531 219.88 6.76903C219.88 5.57275 218.922 4.60297 217.74 4.60297C216.558 4.60297 215.6 5.57275 215.6 6.76903C215.6 7.96531 216.558 8.93509 217.74 8.93509Z" fill="#E6E6E6"/>
<path d="M223.625 8.93509C224.807 8.93509 225.765 7.96531 225.765 6.76903C225.765 5.57275 224.807 4.60297 223.625 4.60297C222.443 4.60297 221.485 5.57275 221.485 6.76903C221.485 7.96531 222.443 8.93509 223.625 8.93509Z" fill="#E6E6E6"/>
<path d="M229.51 8.93509C230.692 8.93509 231.65 7.96531 231.65 6.76903C231.65 5.57275 230.692 4.60297 229.51 4.60297C228.328 4.60297 227.37 5.57275 227.37 6.76903C227.37 7.96531 228.328 8.93509 229.51 8.93509Z" fill="#E6E6E6"/>
<path d="M216.218 62.4435H125.454C124.024 62.4435 122.861 61.266 122.861 59.8187C122.861 58.3714 124.024 57.1939 125.454 57.1939H216.218C217.647 57.1939 218.811 58.3714 218.811 59.8187C218.811 61.266 217.647 62.4435 216.218 62.4435Z" fill="#E6E6E6"/>
<path d="M231.479 270.132H197.767C196.337 270.132 195.174 268.954 195.174 267.507C195.174 266.059 196.337 264.882 197.767 264.882H231.479C232.909 264.882 234.072 266.059 234.072 267.507C234.072 268.954 232.909 270.132 231.479 270.132Z" fill="#E6E6E6"/>
<path d="M141.364 270.132H107.652C106.222 270.132 105.059 268.954 105.059 267.507C105.059 266.059 106.222 264.882 107.652 264.882H141.364C142.794 264.882 143.957 266.059 143.957 267.507C143.957 268.954 142.794 270.132 141.364 270.132Z" fill="#E6E6E6"/>
<path d="M234.072 69.4964H107.599V70.1526H234.072V69.4964Z" fill="#3F3D56"/>
<path d="M216.218 102.472H125.454C124.024 102.472 122.861 101.294 122.861 99.847C122.861 98.3997 124.024 97.2222 125.454 97.2222H216.218C217.647 97.2222 218.811 98.3997 218.811 99.847C218.811 101.294 217.647 102.472 216.218 102.472Z" fill="#E6E6E6"/>
<path d="M234.072 109.525H107.599V110.181H234.072V109.525Z" fill="#3F3D56"/>
<path d="M216.218 142.5H125.454C124.024 142.5 122.861 141.323 122.861 139.875C122.861 138.428 124.024 137.251 125.454 137.251H216.218C217.647 137.251 218.811 138.428 218.811 139.875C218.811 141.323 217.647 142.5 216.218 142.5Z" fill="#E6E6E6"/>
<path d="M234.072 149.553H107.599V150.209H234.072V149.553Z" fill="#3F3D56"/>
<path d="M234.072 183.676H107.599V184.332H234.072V183.676Z" fill="#3F3D56"/>
<path d="M234.072 217.798H107.599V218.454H234.072V217.798Z" fill="#3F3D56"/>
<path d="M171.726 241.801C192.493 241.801 209.328 224.761 209.328 203.741C209.328 182.722 192.493 165.682 171.726 165.682C150.959 165.682 134.124 182.722 134.124 203.741C134.124 224.761 150.959 241.801 171.726 241.801Z" fill="#739D2E"/>
</g>
<defs>
<clipPath id="clip0_18_3">
<rect width="263" height="300" fill="white"/>
</clipPath>
</defs>
</svg>
